G04 #@! TF.FileFunction,Copper,L2,Bot,Signal*
%FSLAX46Y46*%
G04 Gerber Fmt 4.6, Leading zero omitted, Abs format (unit mm)*
G04 Created by KiCad (PCBNEW 4.0.2-stable) date 5/25/2016 08:06:47*
%MOMM*%
G01*
G04 APERTURE LIST*
%ADD10C,0.100000*%
%ADD11R,1.727200X1.727200*%
%ADD12O,1.727200X1.727200*%
%ADD13R,1.727200X2.032000*%
%ADD14O,1.727200X2.032000*%
%ADD15R,2.000000X1.900000*%
%ADD16C,1.900000*%
%ADD17R,1.900000X2.000000*%
%ADD18C,0.600000*%
%ADD19C,0.250000*%
%ADD20C,0.254000*%
G04 APERTURE END LIST*
D10*
D11*
X155575000Y-107315000D03*
D12*
X158115000Y-107315000D03*
X155575000Y-109855000D03*
X158115000Y-109855000D03*
X155575000Y-112395000D03*
X158115000Y-112395000D03*
D13*
X153670000Y-116205000D03*
D14*
X151130000Y-116205000D03*
X148590000Y-116205000D03*
X146050000Y-116205000D03*
D15*
X142875000Y-109855000D03*
D16*
X142875000Y-112395000D03*
D17*
X151765000Y-97155000D03*
D16*
X149225000Y-97155000D03*
D18*
X156337000Y-118414800D03*
X148590000Y-111125000D03*
X152400000Y-104775000D03*
X157734000Y-103886000D03*
X147574000Y-103378000D03*
X149352000Y-103378000D03*
X154736800Y-114173000D03*
X156387800Y-114173000D03*
D19*
X149352000Y-103378000D02*
X147574000Y-103378000D01*
X156387800Y-114173000D02*
X154736800Y-114173000D01*
D20*
G36*
X158576739Y-95405265D02*
X158968182Y-95666820D01*
X159229735Y-96058261D01*
X159335000Y-96587466D01*
X159335000Y-106451342D01*
X159204029Y-106255330D01*
X158717848Y-105930474D01*
X158144359Y-105816400D01*
X158085641Y-105816400D01*
X157512152Y-105930474D01*
X157046558Y-106241574D01*
X157041762Y-106216083D01*
X156902690Y-105999959D01*
X156690490Y-105854969D01*
X156438600Y-105803960D01*
X154711400Y-105803960D01*
X154476083Y-105848238D01*
X154259959Y-105987310D01*
X154114969Y-106199510D01*
X154063960Y-106451400D01*
X154063960Y-108178600D01*
X154108238Y-108413917D01*
X154247310Y-108630041D01*
X154459510Y-108775031D01*
X154503131Y-108783864D01*
X154485971Y-108795330D01*
X154161115Y-109281511D01*
X154047041Y-109855000D01*
X154161115Y-110428489D01*
X154485971Y-110914670D01*
X154800752Y-111125000D01*
X154485971Y-111335330D01*
X154161115Y-111821511D01*
X154047041Y-112395000D01*
X154161115Y-112968489D01*
X154386640Y-113306011D01*
X154207857Y-113379883D01*
X153944608Y-113642673D01*
X153801962Y-113986201D01*
X153801638Y-114358167D01*
X153903955Y-114605795D01*
X153797000Y-114712750D01*
X153797000Y-116078000D01*
X155009850Y-116078000D01*
X155168600Y-115919250D01*
X155168600Y-115062691D01*
X155148640Y-115014503D01*
X155265743Y-114966117D01*
X155298918Y-114933000D01*
X155825337Y-114933000D01*
X155857473Y-114965192D01*
X156201001Y-115107838D01*
X156572967Y-115108162D01*
X156916743Y-114966117D01*
X157179992Y-114703327D01*
X157322638Y-114359799D01*
X157322962Y-113987833D01*
X157180917Y-113644057D01*
X156918127Y-113380808D01*
X156757851Y-113314255D01*
X156844992Y-113183839D01*
X157226510Y-113601821D01*
X157755973Y-113849968D01*
X157988000Y-113729469D01*
X157988000Y-112522000D01*
X157968000Y-112522000D01*
X157968000Y-112268000D01*
X157988000Y-112268000D01*
X157988000Y-112248000D01*
X158242000Y-112248000D01*
X158242000Y-112268000D01*
X158262000Y-112268000D01*
X158262000Y-112522000D01*
X158242000Y-112522000D01*
X158242000Y-113729469D01*
X158474027Y-113849968D01*
X159003490Y-113601821D01*
X159335000Y-113238626D01*
X159335000Y-118677534D01*
X159229735Y-119206739D01*
X158968182Y-119598180D01*
X158576739Y-119859735D01*
X158047534Y-119965000D01*
X142942466Y-119965000D01*
X142413261Y-119859735D01*
X142021820Y-119598182D01*
X141760265Y-119206739D01*
X141655000Y-118677534D01*
X141655000Y-116020255D01*
X144551400Y-116020255D01*
X144551400Y-116389745D01*
X144665474Y-116963234D01*
X144990330Y-117449415D01*
X145476511Y-117774271D01*
X146050000Y-117888345D01*
X146623489Y-117774271D01*
X147109670Y-117449415D01*
X147320000Y-117134634D01*
X147530330Y-117449415D01*
X148016511Y-117774271D01*
X148590000Y-117888345D01*
X149163489Y-117774271D01*
X149649670Y-117449415D01*
X149860000Y-117134634D01*
X150070330Y-117449415D01*
X150556511Y-117774271D01*
X151130000Y-117888345D01*
X151703489Y-117774271D01*
X152189670Y-117449415D01*
X152204500Y-117427220D01*
X152268073Y-117580698D01*
X152446701Y-117759327D01*
X152680090Y-117856000D01*
X153384250Y-117856000D01*
X153543000Y-117697250D01*
X153543000Y-116332000D01*
X153797000Y-116332000D01*
X153797000Y-117697250D01*
X153955750Y-117856000D01*
X154659910Y-117856000D01*
X154893299Y-117759327D01*
X155071927Y-117580698D01*
X155168600Y-117347309D01*
X155168600Y-116490750D01*
X155009850Y-116332000D01*
X153797000Y-116332000D01*
X153543000Y-116332000D01*
X153523000Y-116332000D01*
X153523000Y-116078000D01*
X153543000Y-116078000D01*
X153543000Y-114712750D01*
X153384250Y-114554000D01*
X152680090Y-114554000D01*
X152446701Y-114650673D01*
X152268073Y-114829302D01*
X152204500Y-114982780D01*
X152189670Y-114960585D01*
X151703489Y-114635729D01*
X151130000Y-114521655D01*
X150556511Y-114635729D01*
X150070330Y-114960585D01*
X149860000Y-115275366D01*
X149649670Y-114960585D01*
X149163489Y-114635729D01*
X148590000Y-114521655D01*
X148016511Y-114635729D01*
X147530330Y-114960585D01*
X147320000Y-115275366D01*
X147109670Y-114960585D01*
X146623489Y-114635729D01*
X146050000Y-114521655D01*
X145476511Y-114635729D01*
X144990330Y-114960585D01*
X144665474Y-115446766D01*
X144551400Y-116020255D01*
X141655000Y-116020255D01*
X141655000Y-113416356D01*
X141975997Y-113737914D01*
X142558341Y-113979724D01*
X143188893Y-113980275D01*
X143771657Y-113739481D01*
X144217914Y-113294003D01*
X144459724Y-112711659D01*
X144460275Y-112081107D01*
X144219481Y-111498343D01*
X144121971Y-111400663D01*
X144326441Y-111269090D01*
X144471431Y-111056890D01*
X144522440Y-110805000D01*
X144522440Y-108905000D01*
X144478162Y-108669683D01*
X144339090Y-108453559D01*
X144126890Y-108308569D01*
X143875000Y-108257560D01*
X141875000Y-108257560D01*
X141655000Y-108298956D01*
X141655000Y-103563167D01*
X146638838Y-103563167D01*
X146780883Y-103906943D01*
X147043673Y-104170192D01*
X147387201Y-104312838D01*
X147759167Y-104313162D01*
X148102943Y-104171117D01*
X148136118Y-104138000D01*
X148789537Y-104138000D01*
X148821673Y-104170192D01*
X149165201Y-104312838D01*
X149537167Y-104313162D01*
X149880943Y-104171117D01*
X150144192Y-103908327D01*
X150286838Y-103564799D01*
X150287162Y-103192833D01*
X150145117Y-102849057D01*
X149882327Y-102585808D01*
X149538799Y-102443162D01*
X149166833Y-102442838D01*
X148823057Y-102584883D01*
X148789882Y-102618000D01*
X148136463Y-102618000D01*
X148104327Y-102585808D01*
X147760799Y-102443162D01*
X147388833Y-102442838D01*
X147045057Y-102584883D01*
X146781808Y-102847673D01*
X146639162Y-103191201D01*
X146638838Y-103563167D01*
X141655000Y-103563167D01*
X141655000Y-97468893D01*
X147639725Y-97468893D01*
X147880519Y-98051657D01*
X148325997Y-98497914D01*
X148908341Y-98739724D01*
X149538893Y-98740275D01*
X150121657Y-98499481D01*
X150219337Y-98401971D01*
X150350910Y-98606441D01*
X150563110Y-98751431D01*
X150815000Y-98802440D01*
X152715000Y-98802440D01*
X152950317Y-98758162D01*
X153166441Y-98619090D01*
X153311431Y-98406890D01*
X153362440Y-98155000D01*
X153362440Y-96155000D01*
X153318162Y-95919683D01*
X153179090Y-95703559D01*
X152966890Y-95558569D01*
X152715000Y-95507560D01*
X150815000Y-95507560D01*
X150579683Y-95551838D01*
X150363559Y-95690910D01*
X150218569Y-95903110D01*
X150217945Y-95906192D01*
X150124003Y-95812086D01*
X149541659Y-95570276D01*
X148911107Y-95569725D01*
X148328343Y-95810519D01*
X147882086Y-96255997D01*
X147640276Y-96838341D01*
X147639725Y-97468893D01*
X141655000Y-97468893D01*
X141655000Y-96587466D01*
X141760265Y-96058261D01*
X142021820Y-95666818D01*
X142413261Y-95405265D01*
X142942466Y-95300000D01*
X158047534Y-95300000D01*
X158576739Y-95405265D01*
X158576739Y-95405265D01*
G37*
X158576739Y-95405265D02*
X158968182Y-95666820D01*
X159229735Y-96058261D01*
X159335000Y-96587466D01*
X159335000Y-106451342D01*
X159204029Y-106255330D01*
X158717848Y-105930474D01*
X158144359Y-105816400D01*
X158085641Y-105816400D01*
X157512152Y-105930474D01*
X157046558Y-106241574D01*
X157041762Y-106216083D01*
X156902690Y-105999959D01*
X156690490Y-105854969D01*
X156438600Y-105803960D01*
X154711400Y-105803960D01*
X154476083Y-105848238D01*
X154259959Y-105987310D01*
X154114969Y-106199510D01*
X154063960Y-106451400D01*
X154063960Y-108178600D01*
X154108238Y-108413917D01*
X154247310Y-108630041D01*
X154459510Y-108775031D01*
X154503131Y-108783864D01*
X154485971Y-108795330D01*
X154161115Y-109281511D01*
X154047041Y-109855000D01*
X154161115Y-110428489D01*
X154485971Y-110914670D01*
X154800752Y-111125000D01*
X154485971Y-111335330D01*
X154161115Y-111821511D01*
X154047041Y-112395000D01*
X154161115Y-112968489D01*
X154386640Y-113306011D01*
X154207857Y-113379883D01*
X153944608Y-113642673D01*
X153801962Y-113986201D01*
X153801638Y-114358167D01*
X153903955Y-114605795D01*
X153797000Y-114712750D01*
X153797000Y-116078000D01*
X155009850Y-116078000D01*
X155168600Y-115919250D01*
X155168600Y-115062691D01*
X155148640Y-115014503D01*
X155265743Y-114966117D01*
X155298918Y-114933000D01*
X155825337Y-114933000D01*
X155857473Y-114965192D01*
X156201001Y-115107838D01*
X156572967Y-115108162D01*
X156916743Y-114966117D01*
X157179992Y-114703327D01*
X157322638Y-114359799D01*
X157322962Y-113987833D01*
X157180917Y-113644057D01*
X156918127Y-113380808D01*
X156757851Y-113314255D01*
X156844992Y-113183839D01*
X157226510Y-113601821D01*
X157755973Y-113849968D01*
X157988000Y-113729469D01*
X157988000Y-112522000D01*
X157968000Y-112522000D01*
X157968000Y-112268000D01*
X157988000Y-112268000D01*
X157988000Y-112248000D01*
X158242000Y-112248000D01*
X158242000Y-112268000D01*
X158262000Y-112268000D01*
X158262000Y-112522000D01*
X158242000Y-112522000D01*
X158242000Y-113729469D01*
X158474027Y-113849968D01*
X159003490Y-113601821D01*
X159335000Y-113238626D01*
X159335000Y-118677534D01*
X159229735Y-119206739D01*
X158968182Y-119598180D01*
X158576739Y-119859735D01*
X158047534Y-119965000D01*
X142942466Y-119965000D01*
X142413261Y-119859735D01*
X142021820Y-119598182D01*
X141760265Y-119206739D01*
X141655000Y-118677534D01*
X141655000Y-116020255D01*
X144551400Y-116020255D01*
X144551400Y-116389745D01*
X144665474Y-116963234D01*
X144990330Y-117449415D01*
X145476511Y-117774271D01*
X146050000Y-117888345D01*
X146623489Y-117774271D01*
X147109670Y-117449415D01*
X147320000Y-117134634D01*
X147530330Y-117449415D01*
X148016511Y-117774271D01*
X148590000Y-117888345D01*
X149163489Y-117774271D01*
X149649670Y-117449415D01*
X149860000Y-117134634D01*
X150070330Y-117449415D01*
X150556511Y-117774271D01*
X151130000Y-117888345D01*
X151703489Y-117774271D01*
X152189670Y-117449415D01*
X152204500Y-117427220D01*
X152268073Y-117580698D01*
X152446701Y-117759327D01*
X152680090Y-117856000D01*
X153384250Y-117856000D01*
X153543000Y-117697250D01*
X153543000Y-116332000D01*
X153797000Y-116332000D01*
X153797000Y-117697250D01*
X153955750Y-117856000D01*
X154659910Y-117856000D01*
X154893299Y-117759327D01*
X155071927Y-117580698D01*
X155168600Y-117347309D01*
X155168600Y-116490750D01*
X155009850Y-116332000D01*
X153797000Y-116332000D01*
X153543000Y-116332000D01*
X153523000Y-116332000D01*
X153523000Y-116078000D01*
X153543000Y-116078000D01*
X153543000Y-114712750D01*
X153384250Y-114554000D01*
X152680090Y-114554000D01*
X152446701Y-114650673D01*
X152268073Y-114829302D01*
X152204500Y-114982780D01*
X152189670Y-114960585D01*
X151703489Y-114635729D01*
X151130000Y-114521655D01*
X150556511Y-114635729D01*
X150070330Y-114960585D01*
X149860000Y-115275366D01*
X149649670Y-114960585D01*
X149163489Y-114635729D01*
X148590000Y-114521655D01*
X148016511Y-114635729D01*
X147530330Y-114960585D01*
X147320000Y-115275366D01*
X147109670Y-114960585D01*
X146623489Y-114635729D01*
X146050000Y-114521655D01*
X145476511Y-114635729D01*
X144990330Y-114960585D01*
X144665474Y-115446766D01*
X144551400Y-116020255D01*
X141655000Y-116020255D01*
X141655000Y-113416356D01*
X141975997Y-113737914D01*
X142558341Y-113979724D01*
X143188893Y-113980275D01*
X143771657Y-113739481D01*
X144217914Y-113294003D01*
X144459724Y-112711659D01*
X144460275Y-112081107D01*
X144219481Y-111498343D01*
X144121971Y-111400663D01*
X144326441Y-111269090D01*
X144471431Y-111056890D01*
X144522440Y-110805000D01*
X144522440Y-108905000D01*
X144478162Y-108669683D01*
X144339090Y-108453559D01*
X144126890Y-108308569D01*
X143875000Y-108257560D01*
X141875000Y-108257560D01*
X141655000Y-108298956D01*
X141655000Y-103563167D01*
X146638838Y-103563167D01*
X146780883Y-103906943D01*
X147043673Y-104170192D01*
X147387201Y-104312838D01*
X147759167Y-104313162D01*
X148102943Y-104171117D01*
X148136118Y-104138000D01*
X148789537Y-104138000D01*
X148821673Y-104170192D01*
X149165201Y-104312838D01*
X149537167Y-104313162D01*
X149880943Y-104171117D01*
X150144192Y-103908327D01*
X150286838Y-103564799D01*
X150287162Y-103192833D01*
X150145117Y-102849057D01*
X149882327Y-102585808D01*
X149538799Y-102443162D01*
X149166833Y-102442838D01*
X148823057Y-102584883D01*
X148789882Y-102618000D01*
X148136463Y-102618000D01*
X148104327Y-102585808D01*
X147760799Y-102443162D01*
X147388833Y-102442838D01*
X147045057Y-102584883D01*
X146781808Y-102847673D01*
X146639162Y-103191201D01*
X146638838Y-103563167D01*
X141655000Y-103563167D01*
X141655000Y-97468893D01*
X147639725Y-97468893D01*
X147880519Y-98051657D01*
X148325997Y-98497914D01*
X148908341Y-98739724D01*
X149538893Y-98740275D01*
X150121657Y-98499481D01*
X150219337Y-98401971D01*
X150350910Y-98606441D01*
X150563110Y-98751431D01*
X150815000Y-98802440D01*
X152715000Y-98802440D01*
X152950317Y-98758162D01*
X153166441Y-98619090D01*
X153311431Y-98406890D01*
X153362440Y-98155000D01*
X153362440Y-96155000D01*
X153318162Y-95919683D01*
X153179090Y-95703559D01*
X152966890Y-95558569D01*
X152715000Y-95507560D01*
X150815000Y-95507560D01*
X150579683Y-95551838D01*
X150363559Y-95690910D01*
X150218569Y-95903110D01*
X150217945Y-95906192D01*
X150124003Y-95812086D01*
X149541659Y-95570276D01*
X148911107Y-95569725D01*
X148328343Y-95810519D01*
X147882086Y-96255997D01*
X147640276Y-96838341D01*
X147639725Y-97468893D01*
X141655000Y-97468893D01*
X141655000Y-96587466D01*
X141760265Y-96058261D01*
X142021820Y-95666818D01*
X142413261Y-95405265D01*
X142942466Y-95300000D01*
X158047534Y-95300000D01*
X158576739Y-95405265D01*
M02*
