G04 #@! TF.FileFunction,Legend,Bot*
%FSLAX46Y46*%
G04 Gerber Fmt 4.6, Leading zero omitted, Abs format (unit mm)*
G04 Created by KiCad (PCBNEW 4.0.2-stable) date 5/25/2016 08:06:47*
%MOMM*%
G01*
G04 APERTURE LIST*
%ADD10C,0.100000*%
%ADD11C,0.200000*%
%ADD12C,0.010000*%
G04 APERTURE END LIST*
D10*
D11*
X156026257Y-95777589D02*
X156026257Y-96044256D01*
X156445305Y-96158542D02*
X156445305Y-95777589D01*
X155645305Y-95777589D01*
X155645305Y-96158542D01*
X156445305Y-96844256D02*
X156026257Y-96844256D01*
X155950067Y-96806161D01*
X155911971Y-96729971D01*
X155911971Y-96577590D01*
X155950067Y-96501399D01*
X156407210Y-96844256D02*
X156445305Y-96768066D01*
X156445305Y-96577590D01*
X156407210Y-96501399D01*
X156331019Y-96463304D01*
X156254829Y-96463304D01*
X156178638Y-96501399D01*
X156140543Y-96577590D01*
X156140543Y-96768066D01*
X156102448Y-96844256D01*
X156407210Y-97187114D02*
X156445305Y-97263304D01*
X156445305Y-97415685D01*
X156407210Y-97491876D01*
X156331019Y-97529971D01*
X156292924Y-97529971D01*
X156216733Y-97491876D01*
X156178638Y-97415685D01*
X156178638Y-97301400D01*
X156140543Y-97225209D01*
X156064352Y-97187114D01*
X156026257Y-97187114D01*
X155950067Y-97225209D01*
X155911971Y-97301400D01*
X155911971Y-97415685D01*
X155950067Y-97491876D01*
X155911971Y-97796638D02*
X156445305Y-97987114D01*
X155911971Y-98177590D02*
X156445305Y-97987114D01*
X156635781Y-97910923D01*
X156673876Y-97872828D01*
X156711971Y-97796638D01*
X156445305Y-98863305D02*
X156445305Y-98482352D01*
X155645305Y-98482352D01*
X156445305Y-99472828D02*
X156026257Y-99472828D01*
X155950067Y-99434733D01*
X155911971Y-99358543D01*
X155911971Y-99206162D01*
X155950067Y-99129971D01*
X156407210Y-99472828D02*
X156445305Y-99396638D01*
X156445305Y-99206162D01*
X156407210Y-99129971D01*
X156331019Y-99091876D01*
X156254829Y-99091876D01*
X156178638Y-99129971D01*
X156140543Y-99206162D01*
X156140543Y-99396638D01*
X156102448Y-99472828D01*
X155911971Y-99853781D02*
X156711971Y-99853781D01*
X155950067Y-99853781D02*
X155911971Y-99929972D01*
X155911971Y-100082353D01*
X155950067Y-100158543D01*
X155988162Y-100196638D01*
X156064352Y-100234734D01*
X156292924Y-100234734D01*
X156369114Y-100196638D01*
X156407210Y-100158543D01*
X156445305Y-100082353D01*
X156445305Y-99929972D01*
X156407210Y-99853781D01*
X156026257Y-100844258D02*
X156064352Y-100958544D01*
X156102448Y-100996639D01*
X156178638Y-101034734D01*
X156292924Y-101034734D01*
X156369114Y-100996639D01*
X156407210Y-100958544D01*
X156445305Y-100882353D01*
X156445305Y-100577591D01*
X155645305Y-100577591D01*
X155645305Y-100844258D01*
X155683400Y-100920448D01*
X155721495Y-100958544D01*
X155797686Y-100996639D01*
X155873876Y-100996639D01*
X155950067Y-100958544D01*
X155988162Y-100920448D01*
X156026257Y-100844258D01*
X156026257Y-100577591D01*
X156445305Y-101491877D02*
X156407210Y-101415686D01*
X156331019Y-101377591D01*
X155645305Y-101377591D01*
X156445305Y-102139496D02*
X156026257Y-102139496D01*
X155950067Y-102101401D01*
X155911971Y-102025211D01*
X155911971Y-101872830D01*
X155950067Y-101796639D01*
X156407210Y-102139496D02*
X156445305Y-102063306D01*
X156445305Y-101872830D01*
X156407210Y-101796639D01*
X156331019Y-101758544D01*
X156254829Y-101758544D01*
X156178638Y-101796639D01*
X156140543Y-101872830D01*
X156140543Y-102063306D01*
X156102448Y-102139496D01*
X156407210Y-102482354D02*
X156445305Y-102558544D01*
X156445305Y-102710925D01*
X156407210Y-102787116D01*
X156331019Y-102825211D01*
X156292924Y-102825211D01*
X156216733Y-102787116D01*
X156178638Y-102710925D01*
X156178638Y-102596640D01*
X156140543Y-102520449D01*
X156064352Y-102482354D01*
X156026257Y-102482354D01*
X155950067Y-102520449D01*
X155911971Y-102596640D01*
X155911971Y-102710925D01*
X155950067Y-102787116D01*
X155911971Y-103053782D02*
X155911971Y-103358544D01*
X155645305Y-103168068D02*
X156331019Y-103168068D01*
X156407210Y-103206163D01*
X156445305Y-103282354D01*
X156445305Y-103358544D01*
X156407210Y-103929973D02*
X156445305Y-103853783D01*
X156445305Y-103701402D01*
X156407210Y-103625211D01*
X156331019Y-103587116D01*
X156026257Y-103587116D01*
X155950067Y-103625211D01*
X155911971Y-103701402D01*
X155911971Y-103853783D01*
X155950067Y-103929973D01*
X156026257Y-103968068D01*
X156102448Y-103968068D01*
X156178638Y-103587116D01*
X156445305Y-104310925D02*
X155911971Y-104310925D01*
X156064352Y-104310925D02*
X155988162Y-104349020D01*
X155950067Y-104387116D01*
X155911971Y-104463306D01*
X155911971Y-104539497D01*
X156965305Y-96749019D02*
X157765305Y-97015686D01*
X156965305Y-97282353D01*
X157727210Y-97853781D02*
X157765305Y-97777591D01*
X157765305Y-97625210D01*
X157727210Y-97549019D01*
X157651019Y-97510924D01*
X157346257Y-97510924D01*
X157270067Y-97549019D01*
X157231971Y-97625210D01*
X157231971Y-97777591D01*
X157270067Y-97853781D01*
X157346257Y-97891876D01*
X157422448Y-97891876D01*
X157498638Y-97510924D01*
X157765305Y-98234733D02*
X157231971Y-98234733D01*
X157384352Y-98234733D02*
X157308162Y-98272828D01*
X157270067Y-98310924D01*
X157231971Y-98387114D01*
X157231971Y-98463305D01*
X157727210Y-98691876D02*
X157765305Y-98768066D01*
X157765305Y-98920447D01*
X157727210Y-98996638D01*
X157651019Y-99034733D01*
X157612924Y-99034733D01*
X157536733Y-98996638D01*
X157498638Y-98920447D01*
X157498638Y-98806162D01*
X157460543Y-98729971D01*
X157384352Y-98691876D01*
X157346257Y-98691876D01*
X157270067Y-98729971D01*
X157231971Y-98806162D01*
X157231971Y-98920447D01*
X157270067Y-98996638D01*
X157765305Y-99377590D02*
X157231971Y-99377590D01*
X156965305Y-99377590D02*
X157003400Y-99339495D01*
X157041495Y-99377590D01*
X157003400Y-99415685D01*
X156965305Y-99377590D01*
X157041495Y-99377590D01*
X157765305Y-99872828D02*
X157727210Y-99796637D01*
X157689114Y-99758542D01*
X157612924Y-99720447D01*
X157384352Y-99720447D01*
X157308162Y-99758542D01*
X157270067Y-99796637D01*
X157231971Y-99872828D01*
X157231971Y-99987114D01*
X157270067Y-100063304D01*
X157308162Y-100101399D01*
X157384352Y-100139495D01*
X157612924Y-100139495D01*
X157689114Y-100101399D01*
X157727210Y-100063304D01*
X157765305Y-99987114D01*
X157765305Y-99872828D01*
X157231971Y-100482352D02*
X157765305Y-100482352D01*
X157308162Y-100482352D02*
X157270067Y-100520447D01*
X157231971Y-100596638D01*
X157231971Y-100710924D01*
X157270067Y-100787114D01*
X157346257Y-100825209D01*
X157765305Y-100825209D01*
X157765305Y-102234734D02*
X157765305Y-101777591D01*
X157765305Y-102006162D02*
X156965305Y-102006162D01*
X157079590Y-101929972D01*
X157155781Y-101853781D01*
X157193876Y-101777591D01*
X157689114Y-102577591D02*
X157727210Y-102615686D01*
X157765305Y-102577591D01*
X157727210Y-102539496D01*
X157689114Y-102577591D01*
X157765305Y-102577591D01*
X156965305Y-103110924D02*
X156965305Y-103187115D01*
X157003400Y-103263305D01*
X157041495Y-103301400D01*
X157117686Y-103339496D01*
X157270067Y-103377591D01*
X157460543Y-103377591D01*
X157612924Y-103339496D01*
X157689114Y-103301400D01*
X157727210Y-103263305D01*
X157765305Y-103187115D01*
X157765305Y-103110924D01*
X157727210Y-103034734D01*
X157689114Y-102996638D01*
X157612924Y-102958543D01*
X157460543Y-102920448D01*
X157270067Y-102920448D01*
X157117686Y-102958543D01*
X157041495Y-102996638D01*
X157003400Y-103034734D01*
X156965305Y-103110924D01*
D12*
G36*
X152493880Y-100567202D02*
X152580373Y-100717163D01*
X152642767Y-100836369D01*
X152687056Y-100938268D01*
X152719233Y-101036306D01*
X152739862Y-101119120D01*
X152771591Y-101372851D01*
X152757927Y-101633174D01*
X152701193Y-101887329D01*
X152603713Y-102122556D01*
X152536678Y-102234662D01*
X152491656Y-102304840D01*
X152462427Y-102357052D01*
X152456147Y-102374138D01*
X152473881Y-102402825D01*
X152519090Y-102453560D01*
X152552005Y-102486429D01*
X152647862Y-102578569D01*
X152723856Y-102488322D01*
X152854563Y-102295715D01*
X152956751Y-102068149D01*
X153028115Y-101817271D01*
X153066349Y-101554729D01*
X153069147Y-101292170D01*
X153034205Y-101041242D01*
X153020908Y-100987584D01*
X152974747Y-100850553D01*
X152908676Y-100697196D01*
X152832035Y-100546488D01*
X152754165Y-100417405D01*
X152711701Y-100359411D01*
X152646495Y-100279200D01*
X152544637Y-100380044D01*
X152442779Y-100480887D01*
X152493880Y-100567202D01*
X152493880Y-100567202D01*
G37*
X152493880Y-100567202D02*
X152580373Y-100717163D01*
X152642767Y-100836369D01*
X152687056Y-100938268D01*
X152719233Y-101036306D01*
X152739862Y-101119120D01*
X152771591Y-101372851D01*
X152757927Y-101633174D01*
X152701193Y-101887329D01*
X152603713Y-102122556D01*
X152536678Y-102234662D01*
X152491656Y-102304840D01*
X152462427Y-102357052D01*
X152456147Y-102374138D01*
X152473881Y-102402825D01*
X152519090Y-102453560D01*
X152552005Y-102486429D01*
X152647862Y-102578569D01*
X152723856Y-102488322D01*
X152854563Y-102295715D01*
X152956751Y-102068149D01*
X153028115Y-101817271D01*
X153066349Y-101554729D01*
X153069147Y-101292170D01*
X153034205Y-101041242D01*
X153020908Y-100987584D01*
X152974747Y-100850553D01*
X152908676Y-100697196D01*
X152832035Y-100546488D01*
X152754165Y-100417405D01*
X152711701Y-100359411D01*
X152646495Y-100279200D01*
X152544637Y-100380044D01*
X152442779Y-100480887D01*
X152493880Y-100567202D01*
G36*
X150198933Y-100112396D02*
X150234911Y-100165622D01*
X150275539Y-100210765D01*
X150380549Y-100318305D01*
X150462506Y-100264266D01*
X150721033Y-100121743D01*
X150985817Y-100029158D01*
X151252510Y-99986657D01*
X151516766Y-99994385D01*
X151774235Y-100052487D01*
X152020572Y-100161109D01*
X152100835Y-100209456D01*
X152263034Y-100314291D01*
X152359591Y-100215408D01*
X152414390Y-100156151D01*
X152449378Y-100112289D01*
X152456147Y-100098884D01*
X152435933Y-100075239D01*
X152383875Y-100033016D01*
X152335285Y-99998088D01*
X152079114Y-99852368D01*
X151801036Y-99749639D01*
X151512019Y-99692951D01*
X151223031Y-99685353D01*
X151212884Y-99686025D01*
X150949961Y-99723756D01*
X150697277Y-99801622D01*
X150445677Y-99923211D01*
X150197075Y-100084103D01*
X150198933Y-100112396D01*
X150198933Y-100112396D01*
G37*
X150198933Y-100112396D02*
X150234911Y-100165622D01*
X150275539Y-100210765D01*
X150380549Y-100318305D01*
X150462506Y-100264266D01*
X150721033Y-100121743D01*
X150985817Y-100029158D01*
X151252510Y-99986657D01*
X151516766Y-99994385D01*
X151774235Y-100052487D01*
X152020572Y-100161109D01*
X152100835Y-100209456D01*
X152263034Y-100314291D01*
X152359591Y-100215408D01*
X152414390Y-100156151D01*
X152449378Y-100112289D01*
X152456147Y-100098884D01*
X152435933Y-100075239D01*
X152383875Y-100033016D01*
X152335285Y-99998088D01*
X152079114Y-99852368D01*
X151801036Y-99749639D01*
X151512019Y-99692951D01*
X151223031Y-99685353D01*
X151212884Y-99686025D01*
X150949961Y-99723756D01*
X150697277Y-99801622D01*
X150445677Y-99923211D01*
X150197075Y-100084103D01*
X150198933Y-100112396D01*
G36*
X150205077Y-102783081D02*
X150262125Y-102826387D01*
X150343211Y-102880810D01*
X150436884Y-102939102D01*
X150531692Y-102994014D01*
X150616186Y-103038296D01*
X150651411Y-103054364D01*
X150916318Y-103137902D01*
X151206792Y-103176847D01*
X151318765Y-103179753D01*
X151598219Y-103161153D01*
X151853435Y-103104067D01*
X152061578Y-103023568D01*
X152163690Y-102971814D01*
X152265016Y-102912573D01*
X152354573Y-102853255D01*
X152421373Y-102801269D01*
X152454432Y-102764025D01*
X152456147Y-102757436D01*
X152438508Y-102727580D01*
X152393914Y-102676739D01*
X152367980Y-102650656D01*
X152311844Y-102599616D01*
X152271532Y-102569063D01*
X152262373Y-102565200D01*
X152232177Y-102579009D01*
X152173280Y-102614486D01*
X152125609Y-102645731D01*
X151911757Y-102760382D01*
X151670927Y-102838657D01*
X151417625Y-102877921D01*
X151166360Y-102875539D01*
X151005673Y-102849168D01*
X150806149Y-102784194D01*
X150587300Y-102680432D01*
X150445231Y-102597828D01*
X150400079Y-102572879D01*
X150366104Y-102571819D01*
X150325611Y-102599583D01*
X150278126Y-102644412D01*
X150223200Y-102701768D01*
X150189066Y-102745345D01*
X150183516Y-102758143D01*
X150205077Y-102783081D01*
X150205077Y-102783081D01*
G37*
X150205077Y-102783081D02*
X150262125Y-102826387D01*
X150343211Y-102880810D01*
X150436884Y-102939102D01*
X150531692Y-102994014D01*
X150616186Y-103038296D01*
X150651411Y-103054364D01*
X150916318Y-103137902D01*
X151206792Y-103176847D01*
X151318765Y-103179753D01*
X151598219Y-103161153D01*
X151853435Y-103104067D01*
X152061578Y-103023568D01*
X152163690Y-102971814D01*
X152265016Y-102912573D01*
X152354573Y-102853255D01*
X152421373Y-102801269D01*
X152454432Y-102764025D01*
X152456147Y-102757436D01*
X152438508Y-102727580D01*
X152393914Y-102676739D01*
X152367980Y-102650656D01*
X152311844Y-102599616D01*
X152271532Y-102569063D01*
X152262373Y-102565200D01*
X152232177Y-102579009D01*
X152173280Y-102614486D01*
X152125609Y-102645731D01*
X151911757Y-102760382D01*
X151670927Y-102838657D01*
X151417625Y-102877921D01*
X151166360Y-102875539D01*
X151005673Y-102849168D01*
X150806149Y-102784194D01*
X150587300Y-102680432D01*
X150445231Y-102597828D01*
X150400079Y-102572879D01*
X150366104Y-102571819D01*
X150325611Y-102599583D01*
X150278126Y-102644412D01*
X150223200Y-102701768D01*
X150189066Y-102745345D01*
X150183516Y-102758143D01*
X150205077Y-102783081D01*
G36*
X152003590Y-101586088D02*
X152011043Y-101694999D01*
X152026295Y-101768067D01*
X152051665Y-101814059D01*
X152089470Y-101841743D01*
X152112183Y-101850921D01*
X152166052Y-101848238D01*
X152212446Y-101826404D01*
X152235466Y-101806756D01*
X152251233Y-101779458D01*
X152261108Y-101735037D01*
X152266450Y-101664021D01*
X152268621Y-101556936D01*
X152268990Y-101432716D01*
X152266570Y-101259310D01*
X152259226Y-101137608D01*
X152246828Y-101066057D01*
X152236905Y-101046548D01*
X152173840Y-101016933D01*
X152099791Y-101026442D01*
X152045870Y-101063358D01*
X152026267Y-101094765D01*
X152013224Y-101144059D01*
X152005573Y-101221006D01*
X152002142Y-101335370D01*
X152001621Y-101432564D01*
X152003590Y-101586088D01*
X152003590Y-101586088D01*
G37*
X152003590Y-101586088D02*
X152011043Y-101694999D01*
X152026295Y-101768067D01*
X152051665Y-101814059D01*
X152089470Y-101841743D01*
X152112183Y-101850921D01*
X152166052Y-101848238D01*
X152212446Y-101826404D01*
X152235466Y-101806756D01*
X152251233Y-101779458D01*
X152261108Y-101735037D01*
X152266450Y-101664021D01*
X152268621Y-101556936D01*
X152268990Y-101432716D01*
X152266570Y-101259310D01*
X152259226Y-101137608D01*
X152246828Y-101066057D01*
X152236905Y-101046548D01*
X152173840Y-101016933D01*
X152099791Y-101026442D01*
X152045870Y-101063358D01*
X152026267Y-101094765D01*
X152013224Y-101144059D01*
X152005573Y-101221006D01*
X152002142Y-101335370D01*
X152001621Y-101432564D01*
X152003590Y-101586088D01*
G36*
X151006482Y-105994200D02*
X151016583Y-106201411D01*
X151497491Y-106201411D01*
X151669255Y-106199873D01*
X151816769Y-106195538D01*
X151932013Y-106188822D01*
X152006965Y-106180143D01*
X152030116Y-106173733D01*
X152055904Y-106153183D01*
X152071481Y-106117574D01*
X152079287Y-106055058D01*
X152081760Y-105953792D01*
X152081832Y-105922594D01*
X152079828Y-105807846D01*
X152072612Y-105736233D01*
X152058381Y-105697526D01*
X152039540Y-105682903D01*
X151979133Y-105669845D01*
X151932592Y-105666674D01*
X151888787Y-105674072D01*
X151870871Y-105706659D01*
X151867937Y-105760253D01*
X151876634Y-105829466D01*
X151904390Y-105853663D01*
X151908042Y-105853832D01*
X151939882Y-105877746D01*
X151948147Y-105934043D01*
X151941522Y-105990856D01*
X151910272Y-106011796D01*
X151867937Y-106014253D01*
X151820206Y-106011259D01*
X151796564Y-105993018D01*
X151788557Y-105945638D01*
X151787726Y-105882479D01*
X151784426Y-105799554D01*
X151769268Y-105741059D01*
X151734366Y-105702762D01*
X151671834Y-105680435D01*
X151573785Y-105669846D01*
X151432334Y-105666767D01*
X151410250Y-105666724D01*
X151410250Y-105827095D01*
X151529125Y-105832677D01*
X151603796Y-105852302D01*
X151642641Y-105890289D01*
X151654037Y-105950955D01*
X151654042Y-105952758D01*
X151651621Y-105981259D01*
X151637687Y-105999235D01*
X151602236Y-106009110D01*
X151535263Y-106013305D01*
X151426765Y-106014243D01*
X151400042Y-106014253D01*
X151146042Y-106014253D01*
X151146042Y-105936903D01*
X151152238Y-105886239D01*
X151177079Y-105853843D01*
X151229951Y-105835813D01*
X151320235Y-105828250D01*
X151410250Y-105827095D01*
X151410250Y-105666724D01*
X151385380Y-105666674D01*
X151232912Y-105668191D01*
X151126216Y-105677174D01*
X151057598Y-105700277D01*
X151019362Y-105744151D01*
X151003814Y-105815447D01*
X151003258Y-105920817D01*
X151006482Y-105994200D01*
X151006482Y-105994200D01*
G37*
X151006482Y-105994200D02*
X151016583Y-106201411D01*
X151497491Y-106201411D01*
X151669255Y-106199873D01*
X151816769Y-106195538D01*
X151932013Y-106188822D01*
X152006965Y-106180143D01*
X152030116Y-106173733D01*
X152055904Y-106153183D01*
X152071481Y-106117574D01*
X152079287Y-106055058D01*
X152081760Y-105953792D01*
X152081832Y-105922594D01*
X152079828Y-105807846D01*
X152072612Y-105736233D01*
X152058381Y-105697526D01*
X152039540Y-105682903D01*
X151979133Y-105669845D01*
X151932592Y-105666674D01*
X151888787Y-105674072D01*
X151870871Y-105706659D01*
X151867937Y-105760253D01*
X151876634Y-105829466D01*
X151904390Y-105853663D01*
X151908042Y-105853832D01*
X151939882Y-105877746D01*
X151948147Y-105934043D01*
X151941522Y-105990856D01*
X151910272Y-106011796D01*
X151867937Y-106014253D01*
X151820206Y-106011259D01*
X151796564Y-105993018D01*
X151788557Y-105945638D01*
X151787726Y-105882479D01*
X151784426Y-105799554D01*
X151769268Y-105741059D01*
X151734366Y-105702762D01*
X151671834Y-105680435D01*
X151573785Y-105669846D01*
X151432334Y-105666767D01*
X151410250Y-105666724D01*
X151410250Y-105827095D01*
X151529125Y-105832677D01*
X151603796Y-105852302D01*
X151642641Y-105890289D01*
X151654037Y-105950955D01*
X151654042Y-105952758D01*
X151651621Y-105981259D01*
X151637687Y-105999235D01*
X151602236Y-106009110D01*
X151535263Y-106013305D01*
X151426765Y-106014243D01*
X151400042Y-106014253D01*
X151146042Y-106014253D01*
X151146042Y-105936903D01*
X151152238Y-105886239D01*
X151177079Y-105853843D01*
X151229951Y-105835813D01*
X151320235Y-105828250D01*
X151410250Y-105827095D01*
X151410250Y-105666724D01*
X151385380Y-105666674D01*
X151232912Y-105668191D01*
X151126216Y-105677174D01*
X151057598Y-105700277D01*
X151019362Y-105744151D01*
X151003814Y-105815447D01*
X151003258Y-105920817D01*
X151006482Y-105994200D01*
G36*
X150999001Y-110345640D02*
X151008151Y-110386037D01*
X151014149Y-110462459D01*
X151015665Y-110547342D01*
X151014341Y-110719937D01*
X151505794Y-110719937D01*
X151664888Y-110719084D01*
X151807226Y-110716715D01*
X151923473Y-110713113D01*
X152004296Y-110708563D01*
X152039540Y-110703708D01*
X152061111Y-110684842D01*
X152074140Y-110641718D01*
X152080432Y-110564108D01*
X152081832Y-110464017D01*
X152080270Y-110351753D01*
X152073958Y-110281067D01*
X152060457Y-110240113D01*
X152037327Y-110217045D01*
X152030116Y-110212878D01*
X151961002Y-110189565D01*
X151923168Y-110185200D01*
X151885251Y-110195032D01*
X151869892Y-110234215D01*
X151867937Y-110278779D01*
X151876634Y-110347992D01*
X151904390Y-110372189D01*
X151908042Y-110372358D01*
X151939882Y-110396273D01*
X151948147Y-110452569D01*
X151941522Y-110509382D01*
X151910272Y-110530322D01*
X151867937Y-110532779D01*
X151819909Y-110529697D01*
X151796314Y-110511113D01*
X151788478Y-110463020D01*
X151787726Y-110403239D01*
X151783701Y-110319897D01*
X151766454Y-110260870D01*
X151728227Y-110222025D01*
X151661263Y-110199229D01*
X151557803Y-110188349D01*
X151410090Y-110185251D01*
X151378501Y-110185200D01*
X151244985Y-110185719D01*
X151154590Y-110188554D01*
X151146042Y-110189602D01*
X151146042Y-110372358D01*
X151382218Y-110372358D01*
X151489811Y-110374255D01*
X151576141Y-110379323D01*
X151627926Y-110386632D01*
X151636218Y-110390183D01*
X151650286Y-110428441D01*
X151654042Y-110470393D01*
X151651743Y-110499303D01*
X151638172Y-110517537D01*
X151603322Y-110527554D01*
X151537185Y-110531812D01*
X151429752Y-110532768D01*
X151400042Y-110532779D01*
X151146042Y-110532779D01*
X151146042Y-110372358D01*
X151146042Y-110189602D01*
X151096963Y-110195622D01*
X151061753Y-110208842D01*
X151038608Y-110230131D01*
X151024038Y-110250867D01*
X150998620Y-110307008D01*
X150999001Y-110345640D01*
X150999001Y-110345640D01*
G37*
X150999001Y-110345640D02*
X151008151Y-110386037D01*
X151014149Y-110462459D01*
X151015665Y-110547342D01*
X151014341Y-110719937D01*
X151505794Y-110719937D01*
X151664888Y-110719084D01*
X151807226Y-110716715D01*
X151923473Y-110713113D01*
X152004296Y-110708563D01*
X152039540Y-110703708D01*
X152061111Y-110684842D01*
X152074140Y-110641718D01*
X152080432Y-110564108D01*
X152081832Y-110464017D01*
X152080270Y-110351753D01*
X152073958Y-110281067D01*
X152060457Y-110240113D01*
X152037327Y-110217045D01*
X152030116Y-110212878D01*
X151961002Y-110189565D01*
X151923168Y-110185200D01*
X151885251Y-110195032D01*
X151869892Y-110234215D01*
X151867937Y-110278779D01*
X151876634Y-110347992D01*
X151904390Y-110372189D01*
X151908042Y-110372358D01*
X151939882Y-110396273D01*
X151948147Y-110452569D01*
X151941522Y-110509382D01*
X151910272Y-110530322D01*
X151867937Y-110532779D01*
X151819909Y-110529697D01*
X151796314Y-110511113D01*
X151788478Y-110463020D01*
X151787726Y-110403239D01*
X151783701Y-110319897D01*
X151766454Y-110260870D01*
X151728227Y-110222025D01*
X151661263Y-110199229D01*
X151557803Y-110188349D01*
X151410090Y-110185251D01*
X151378501Y-110185200D01*
X151244985Y-110185719D01*
X151154590Y-110188554D01*
X151146042Y-110189602D01*
X151146042Y-110372358D01*
X151382218Y-110372358D01*
X151489811Y-110374255D01*
X151576141Y-110379323D01*
X151627926Y-110386632D01*
X151636218Y-110390183D01*
X151650286Y-110428441D01*
X151654042Y-110470393D01*
X151651743Y-110499303D01*
X151638172Y-110517537D01*
X151603322Y-110527554D01*
X151537185Y-110531812D01*
X151429752Y-110532768D01*
X151400042Y-110532779D01*
X151146042Y-110532779D01*
X151146042Y-110372358D01*
X151146042Y-110189602D01*
X151096963Y-110195622D01*
X151061753Y-110208842D01*
X151038608Y-110230131D01*
X151024038Y-110250867D01*
X150998620Y-110307008D01*
X150999001Y-110345640D01*
G36*
X151598080Y-101625616D02*
X151602854Y-101782447D01*
X151610222Y-101919839D01*
X151620163Y-102028685D01*
X151632654Y-102099881D01*
X151642584Y-102122133D01*
X151701782Y-102160058D01*
X151764538Y-102149963D01*
X151802669Y-102126238D01*
X151819422Y-102110839D01*
X151832278Y-102087697D01*
X151841860Y-102049962D01*
X151848791Y-101990781D01*
X151853694Y-101903303D01*
X151857191Y-101780675D01*
X151859906Y-101616046D01*
X151861608Y-101477870D01*
X151863226Y-101262164D01*
X151862363Y-101094405D01*
X151858797Y-100969111D01*
X151852306Y-100880802D01*
X151842668Y-100823999D01*
X151834202Y-100800569D01*
X151781270Y-100743964D01*
X151711064Y-100723548D01*
X151643772Y-100744731D01*
X151639202Y-100748317D01*
X151625184Y-100786282D01*
X151613918Y-100868543D01*
X151605382Y-100985996D01*
X151599552Y-101129535D01*
X151596407Y-101290055D01*
X151595924Y-101458450D01*
X151598080Y-101625616D01*
X151598080Y-101625616D01*
G37*
X151598080Y-101625616D02*
X151602854Y-101782447D01*
X151610222Y-101919839D01*
X151620163Y-102028685D01*
X151632654Y-102099881D01*
X151642584Y-102122133D01*
X151701782Y-102160058D01*
X151764538Y-102149963D01*
X151802669Y-102126238D01*
X151819422Y-102110839D01*
X151832278Y-102087697D01*
X151841860Y-102049962D01*
X151848791Y-101990781D01*
X151853694Y-101903303D01*
X151857191Y-101780675D01*
X151859906Y-101616046D01*
X151861608Y-101477870D01*
X151863226Y-101262164D01*
X151862363Y-101094405D01*
X151858797Y-100969111D01*
X151852306Y-100880802D01*
X151842668Y-100823999D01*
X151834202Y-100800569D01*
X151781270Y-100743964D01*
X151711064Y-100723548D01*
X151643772Y-100744731D01*
X151639202Y-100748317D01*
X151625184Y-100786282D01*
X151613918Y-100868543D01*
X151605382Y-100985996D01*
X151599552Y-101129535D01*
X151596407Y-101290055D01*
X151595924Y-101458450D01*
X151598080Y-101625616D01*
G36*
X150559489Y-103974594D02*
X150563930Y-104072002D01*
X150570359Y-104137556D01*
X150574061Y-104153856D01*
X150592233Y-104174883D01*
X150633759Y-104187821D01*
X150708660Y-104194350D01*
X150826545Y-104196148D01*
X150941909Y-104194865D01*
X151016127Y-104189292D01*
X151061501Y-104176842D01*
X151090331Y-104154930D01*
X151103605Y-104137890D01*
X151144411Y-104079632D01*
X151210792Y-104151258D01*
X151249682Y-104188117D01*
X151291512Y-104209608D01*
X151351645Y-104219805D01*
X151445445Y-104222788D01*
X151480734Y-104222885D01*
X151607760Y-104221296D01*
X151693792Y-104210718D01*
X151746818Y-104182431D01*
X151774824Y-104127715D01*
X151785797Y-104037851D01*
X151787724Y-103904120D01*
X151787726Y-103887733D01*
X151787726Y-103607937D01*
X151657117Y-103607937D01*
X151657117Y-103795095D01*
X151648895Y-103908727D01*
X151640674Y-104022358D01*
X151470817Y-104030390D01*
X151353413Y-104028073D01*
X151278979Y-104004207D01*
X151239542Y-103953502D01*
X151227131Y-103870665D01*
X151227103Y-103868622D01*
X151226253Y-103795095D01*
X151657117Y-103795095D01*
X151657117Y-103607937D01*
X150718253Y-103607937D01*
X150718253Y-103795095D01*
X150905411Y-103795095D01*
X151003329Y-103796258D01*
X151059387Y-103802262D01*
X151085186Y-103816882D01*
X151092328Y-103843894D01*
X151092569Y-103855988D01*
X151077239Y-103924989D01*
X151050947Y-103976304D01*
X151015775Y-104012290D01*
X150964369Y-104030254D01*
X150879516Y-104035661D01*
X150863789Y-104035727D01*
X150718253Y-104035727D01*
X150718253Y-103795095D01*
X150718253Y-103607937D01*
X150557832Y-103607937D01*
X150557832Y-103859751D01*
X150559489Y-103974594D01*
X150559489Y-103974594D01*
G37*
X150559489Y-103974594D02*
X150563930Y-104072002D01*
X150570359Y-104137556D01*
X150574061Y-104153856D01*
X150592233Y-104174883D01*
X150633759Y-104187821D01*
X150708660Y-104194350D01*
X150826545Y-104196148D01*
X150941909Y-104194865D01*
X151016127Y-104189292D01*
X151061501Y-104176842D01*
X151090331Y-104154930D01*
X151103605Y-104137890D01*
X151144411Y-104079632D01*
X151210792Y-104151258D01*
X151249682Y-104188117D01*
X151291512Y-104209608D01*
X151351645Y-104219805D01*
X151445445Y-104222788D01*
X151480734Y-104222885D01*
X151607760Y-104221296D01*
X151693792Y-104210718D01*
X151746818Y-104182431D01*
X151774824Y-104127715D01*
X151785797Y-104037851D01*
X151787724Y-103904120D01*
X151787726Y-103887733D01*
X151787726Y-103607937D01*
X151657117Y-103607937D01*
X151657117Y-103795095D01*
X151648895Y-103908727D01*
X151640674Y-104022358D01*
X151470817Y-104030390D01*
X151353413Y-104028073D01*
X151278979Y-104004207D01*
X151239542Y-103953502D01*
X151227131Y-103870665D01*
X151227103Y-103868622D01*
X151226253Y-103795095D01*
X151657117Y-103795095D01*
X151657117Y-103607937D01*
X150718253Y-103607937D01*
X150718253Y-103795095D01*
X150905411Y-103795095D01*
X151003329Y-103796258D01*
X151059387Y-103802262D01*
X151085186Y-103816882D01*
X151092328Y-103843894D01*
X151092569Y-103855988D01*
X151077239Y-103924989D01*
X151050947Y-103976304D01*
X151015775Y-104012290D01*
X150964369Y-104030254D01*
X150879516Y-104035661D01*
X150863789Y-104035727D01*
X150718253Y-104035727D01*
X150718253Y-103795095D01*
X150718253Y-103607937D01*
X150557832Y-103607937D01*
X150557832Y-103859751D01*
X150559489Y-103974594D01*
G36*
X151426779Y-104851200D02*
X151442699Y-104516990D01*
X151548371Y-104516990D01*
X151616310Y-104519923D01*
X151646297Y-104537876D01*
X151653837Y-104584581D01*
X151654042Y-104610569D01*
X151649048Y-104673852D01*
X151626575Y-104699760D01*
X151587200Y-104704148D01*
X151539736Y-104712569D01*
X151522120Y-104748616D01*
X151520358Y-104785823D01*
X151523016Y-104834844D01*
X151540397Y-104857692D01*
X151586609Y-104862535D01*
X151647358Y-104859350D01*
X151774358Y-104851200D01*
X151782090Y-104616816D01*
X151783856Y-104495405D01*
X151778854Y-104418837D01*
X151766140Y-104378799D01*
X151753939Y-104368662D01*
X151714784Y-104364032D01*
X151633544Y-104361261D01*
X151521580Y-104360534D01*
X151390253Y-104362036D01*
X151371891Y-104362415D01*
X151300788Y-104363960D01*
X151300788Y-104519041D01*
X151327937Y-104533382D01*
X151330572Y-104577289D01*
X151328338Y-104602162D01*
X151317445Y-104661834D01*
X151288662Y-104686189D01*
X151226253Y-104690779D01*
X151163381Y-104686308D01*
X151137593Y-104663628D01*
X151132674Y-104610569D01*
X151137886Y-104557723D01*
X151163914Y-104532932D01*
X151226343Y-104522665D01*
X151234759Y-104521952D01*
X151300788Y-104519041D01*
X151300788Y-104363960D01*
X151025726Y-104369937D01*
X151025726Y-104851200D01*
X151426779Y-104851200D01*
X151426779Y-104851200D01*
G37*
X151426779Y-104851200D02*
X151442699Y-104516990D01*
X151548371Y-104516990D01*
X151616310Y-104519923D01*
X151646297Y-104537876D01*
X151653837Y-104584581D01*
X151654042Y-104610569D01*
X151649048Y-104673852D01*
X151626575Y-104699760D01*
X151587200Y-104704148D01*
X151539736Y-104712569D01*
X151522120Y-104748616D01*
X151520358Y-104785823D01*
X151523016Y-104834844D01*
X151540397Y-104857692D01*
X151586609Y-104862535D01*
X151647358Y-104859350D01*
X151774358Y-104851200D01*
X151782090Y-104616816D01*
X151783856Y-104495405D01*
X151778854Y-104418837D01*
X151766140Y-104378799D01*
X151753939Y-104368662D01*
X151714784Y-104364032D01*
X151633544Y-104361261D01*
X151521580Y-104360534D01*
X151390253Y-104362036D01*
X151371891Y-104362415D01*
X151300788Y-104363960D01*
X151300788Y-104519041D01*
X151327937Y-104533382D01*
X151330572Y-104577289D01*
X151328338Y-104602162D01*
X151317445Y-104661834D01*
X151288662Y-104686189D01*
X151226253Y-104690779D01*
X151163381Y-104686308D01*
X151137593Y-104663628D01*
X151132674Y-104610569D01*
X151137886Y-104557723D01*
X151163914Y-104532932D01*
X151226343Y-104522665D01*
X151234759Y-104521952D01*
X151300788Y-104519041D01*
X151300788Y-104363960D01*
X151025726Y-104369937D01*
X151025726Y-104851200D01*
X151426779Y-104851200D01*
G36*
X151002303Y-105420721D02*
X151019045Y-105476560D01*
X151058258Y-105509973D01*
X151127387Y-105526696D01*
X151233875Y-105532462D01*
X151385169Y-105533005D01*
X151414351Y-105532990D01*
X151787726Y-105532990D01*
X151787726Y-105345832D01*
X151146042Y-105345832D01*
X151146042Y-105185411D01*
X151787726Y-105185411D01*
X151787726Y-104998253D01*
X151018020Y-104998253D01*
X151006450Y-105218832D01*
X151000586Y-105336723D01*
X151002303Y-105420721D01*
X151002303Y-105420721D01*
G37*
X151002303Y-105420721D02*
X151019045Y-105476560D01*
X151058258Y-105509973D01*
X151127387Y-105526696D01*
X151233875Y-105532462D01*
X151385169Y-105533005D01*
X151414351Y-105532990D01*
X151787726Y-105532990D01*
X151787726Y-105345832D01*
X151146042Y-105345832D01*
X151146042Y-105185411D01*
X151787726Y-105185411D01*
X151787726Y-104998253D01*
X151018020Y-104998253D01*
X151006450Y-105218832D01*
X151000586Y-105336723D01*
X151002303Y-105420721D01*
G36*
X151787726Y-106495516D02*
X151787726Y-106335095D01*
X151012358Y-106335095D01*
X151012358Y-106495516D01*
X151787726Y-106495516D01*
X151787726Y-106495516D01*
G37*
X151787726Y-106495516D02*
X151787726Y-106335095D01*
X151012358Y-106335095D01*
X151012358Y-106495516D01*
X151787726Y-106495516D01*
G36*
X151012062Y-107109911D02*
X151027129Y-107131408D01*
X151051301Y-107146313D01*
X151093477Y-107155824D01*
X151162559Y-107161135D01*
X151267448Y-107163441D01*
X151414351Y-107163937D01*
X151787726Y-107163937D01*
X151787726Y-106976779D01*
X151146042Y-106976779D01*
X151146042Y-106816358D01*
X151787726Y-106816358D01*
X151787726Y-106629200D01*
X151014907Y-106629200D01*
X151015497Y-106815895D01*
X151013566Y-106912941D01*
X151007935Y-106989360D01*
X150999812Y-107028910D01*
X150999618Y-107029237D01*
X150997876Y-107071428D01*
X151012062Y-107109911D01*
X151012062Y-107109911D01*
G37*
X151012062Y-107109911D02*
X151027129Y-107131408D01*
X151051301Y-107146313D01*
X151093477Y-107155824D01*
X151162559Y-107161135D01*
X151267448Y-107163441D01*
X151414351Y-107163937D01*
X151787726Y-107163937D01*
X151787726Y-106976779D01*
X151146042Y-106976779D01*
X151146042Y-106816358D01*
X151787726Y-106816358D01*
X151787726Y-106629200D01*
X151014907Y-106629200D01*
X151015497Y-106815895D01*
X151013566Y-106912941D01*
X151007935Y-106989360D01*
X150999812Y-107028910D01*
X150999618Y-107029237D01*
X150997876Y-107071428D01*
X151012062Y-107109911D01*
G36*
X151426779Y-107792253D02*
X151434798Y-107638516D01*
X151442816Y-107484779D01*
X151548429Y-107484779D01*
X151616449Y-107488052D01*
X151646472Y-107505672D01*
X151653907Y-107549344D01*
X151654042Y-107564990D01*
X151646848Y-107622314D01*
X151616267Y-107643285D01*
X151587200Y-107645200D01*
X151539736Y-107653622D01*
X151522120Y-107689668D01*
X151520358Y-107726876D01*
X151523016Y-107775897D01*
X151540397Y-107798745D01*
X151586609Y-107803588D01*
X151647358Y-107800402D01*
X151774358Y-107792253D01*
X151782090Y-107557868D01*
X151783856Y-107436458D01*
X151778854Y-107359890D01*
X151766140Y-107319851D01*
X151753939Y-107309715D01*
X151714784Y-107305085D01*
X151633544Y-107302314D01*
X151521580Y-107301586D01*
X151390253Y-107303089D01*
X151371891Y-107303468D01*
X151226253Y-107306632D01*
X151226253Y-107484779D01*
X151294828Y-107487947D01*
X151325313Y-107505111D01*
X151333031Y-107547766D01*
X151333200Y-107564990D01*
X151328977Y-107616422D01*
X151306091Y-107639285D01*
X151249218Y-107645074D01*
X151226253Y-107645200D01*
X151157677Y-107642033D01*
X151127193Y-107624868D01*
X151119474Y-107582214D01*
X151119305Y-107564990D01*
X151123529Y-107513558D01*
X151146415Y-107490695D01*
X151203288Y-107484906D01*
X151226253Y-107484779D01*
X151226253Y-107306632D01*
X151025726Y-107310990D01*
X151025726Y-107792253D01*
X151426779Y-107792253D01*
X151426779Y-107792253D01*
G37*
X151426779Y-107792253D02*
X151434798Y-107638516D01*
X151442816Y-107484779D01*
X151548429Y-107484779D01*
X151616449Y-107488052D01*
X151646472Y-107505672D01*
X151653907Y-107549344D01*
X151654042Y-107564990D01*
X151646848Y-107622314D01*
X151616267Y-107643285D01*
X151587200Y-107645200D01*
X151539736Y-107653622D01*
X151522120Y-107689668D01*
X151520358Y-107726876D01*
X151523016Y-107775897D01*
X151540397Y-107798745D01*
X151586609Y-107803588D01*
X151647358Y-107800402D01*
X151774358Y-107792253D01*
X151782090Y-107557868D01*
X151783856Y-107436458D01*
X151778854Y-107359890D01*
X151766140Y-107319851D01*
X151753939Y-107309715D01*
X151714784Y-107305085D01*
X151633544Y-107302314D01*
X151521580Y-107301586D01*
X151390253Y-107303089D01*
X151371891Y-107303468D01*
X151226253Y-107306632D01*
X151226253Y-107484779D01*
X151294828Y-107487947D01*
X151325313Y-107505111D01*
X151333031Y-107547766D01*
X151333200Y-107564990D01*
X151328977Y-107616422D01*
X151306091Y-107639285D01*
X151249218Y-107645074D01*
X151226253Y-107645200D01*
X151157677Y-107642033D01*
X151127193Y-107624868D01*
X151119474Y-107582214D01*
X151119305Y-107564990D01*
X151123529Y-107513558D01*
X151146415Y-107490695D01*
X151203288Y-107484906D01*
X151226253Y-107484779D01*
X151226253Y-107306632D01*
X151025726Y-107310990D01*
X151025726Y-107792253D01*
X151426779Y-107792253D01*
G36*
X151008978Y-108258340D02*
X151016670Y-108352739D01*
X151032006Y-108424321D01*
X151054650Y-108457814D01*
X151118276Y-108470451D01*
X151205237Y-108474094D01*
X151295905Y-108469623D01*
X151370653Y-108457919D01*
X151408063Y-108441958D01*
X151426310Y-108398391D01*
X151437933Y-108321987D01*
X151440147Y-108268169D01*
X151440147Y-108126464D01*
X151547095Y-108126464D01*
X151615697Y-108129687D01*
X151646195Y-108146829D01*
X151653889Y-108189100D01*
X151654042Y-108204815D01*
X151643992Y-108264581D01*
X151606477Y-108289412D01*
X151593884Y-108291709D01*
X151549524Y-108310659D01*
X151534274Y-108360501D01*
X151533726Y-108380464D01*
X151542934Y-108440557D01*
X151578508Y-108466067D01*
X151596604Y-108469574D01*
X151674929Y-108470032D01*
X151723604Y-108462381D01*
X151754204Y-108451844D01*
X151773106Y-108431606D01*
X151783121Y-108390576D01*
X151787057Y-108317661D01*
X151787726Y-108209283D01*
X151786838Y-108095726D01*
X151782416Y-108024557D01*
X151771829Y-107984699D01*
X151752443Y-107965074D01*
X151727569Y-107956158D01*
X151672552Y-107948722D01*
X151580881Y-107943568D01*
X151466674Y-107940707D01*
X151344048Y-107940153D01*
X151227120Y-107941920D01*
X151226253Y-107941956D01*
X151226253Y-108126464D01*
X151294828Y-108129631D01*
X151325313Y-108146796D01*
X151333031Y-108189451D01*
X151333200Y-108206674D01*
X151328977Y-108258106D01*
X151306091Y-108280969D01*
X151249218Y-108286758D01*
X151226253Y-108286885D01*
X151157677Y-108283717D01*
X151127193Y-108266553D01*
X151119474Y-108223898D01*
X151119305Y-108206674D01*
X151123529Y-108155243D01*
X151146415Y-108132379D01*
X151203288Y-108126590D01*
X151226253Y-108126464D01*
X151226253Y-107941956D01*
X151130009Y-107946019D01*
X151066832Y-107952464D01*
X151054650Y-107955535D01*
X151031766Y-107989720D01*
X151016526Y-108061682D01*
X151008930Y-108156271D01*
X151008978Y-108258340D01*
X151008978Y-108258340D01*
G37*
X151008978Y-108258340D02*
X151016670Y-108352739D01*
X151032006Y-108424321D01*
X151054650Y-108457814D01*
X151118276Y-108470451D01*
X151205237Y-108474094D01*
X151295905Y-108469623D01*
X151370653Y-108457919D01*
X151408063Y-108441958D01*
X151426310Y-108398391D01*
X151437933Y-108321987D01*
X151440147Y-108268169D01*
X151440147Y-108126464D01*
X151547095Y-108126464D01*
X151615697Y-108129687D01*
X151646195Y-108146829D01*
X151653889Y-108189100D01*
X151654042Y-108204815D01*
X151643992Y-108264581D01*
X151606477Y-108289412D01*
X151593884Y-108291709D01*
X151549524Y-108310659D01*
X151534274Y-108360501D01*
X151533726Y-108380464D01*
X151542934Y-108440557D01*
X151578508Y-108466067D01*
X151596604Y-108469574D01*
X151674929Y-108470032D01*
X151723604Y-108462381D01*
X151754204Y-108451844D01*
X151773106Y-108431606D01*
X151783121Y-108390576D01*
X151787057Y-108317661D01*
X151787726Y-108209283D01*
X151786838Y-108095726D01*
X151782416Y-108024557D01*
X151771829Y-107984699D01*
X151752443Y-107965074D01*
X151727569Y-107956158D01*
X151672552Y-107948722D01*
X151580881Y-107943568D01*
X151466674Y-107940707D01*
X151344048Y-107940153D01*
X151227120Y-107941920D01*
X151226253Y-107941956D01*
X151226253Y-108126464D01*
X151294828Y-108129631D01*
X151325313Y-108146796D01*
X151333031Y-108189451D01*
X151333200Y-108206674D01*
X151328977Y-108258106D01*
X151306091Y-108280969D01*
X151249218Y-108286758D01*
X151226253Y-108286885D01*
X151157677Y-108283717D01*
X151127193Y-108266553D01*
X151119474Y-108223898D01*
X151119305Y-108206674D01*
X151123529Y-108155243D01*
X151146415Y-108132379D01*
X151203288Y-108126590D01*
X151226253Y-108126464D01*
X151226253Y-107941956D01*
X151130009Y-107946019D01*
X151066832Y-107952464D01*
X151054650Y-107955535D01*
X151031766Y-107989720D01*
X151016526Y-108061682D01*
X151008930Y-108156271D01*
X151008978Y-108258340D01*
G36*
X151004732Y-109010791D02*
X151020762Y-109058775D01*
X151055703Y-109081543D01*
X151115068Y-109088497D01*
X151175897Y-109088990D01*
X151263609Y-109087878D01*
X151310575Y-109080216D01*
X151329524Y-109059513D01*
X151333183Y-109019279D01*
X151333200Y-109008779D01*
X151328135Y-108955240D01*
X151302210Y-108933016D01*
X151239330Y-108928569D01*
X151237845Y-108928569D01*
X151174799Y-108924734D01*
X151150591Y-108905042D01*
X151150704Y-108857210D01*
X151150950Y-108855043D01*
X151159411Y-108781516D01*
X151473569Y-108773984D01*
X151787726Y-108766451D01*
X151787726Y-108607727D01*
X151016746Y-108607727D01*
X151007351Y-108801569D01*
X151002099Y-108928190D01*
X151004732Y-109010791D01*
X151004732Y-109010791D01*
G37*
X151004732Y-109010791D02*
X151020762Y-109058775D01*
X151055703Y-109081543D01*
X151115068Y-109088497D01*
X151175897Y-109088990D01*
X151263609Y-109087878D01*
X151310575Y-109080216D01*
X151329524Y-109059513D01*
X151333183Y-109019279D01*
X151333200Y-109008779D01*
X151328135Y-108955240D01*
X151302210Y-108933016D01*
X151239330Y-108928569D01*
X151237845Y-108928569D01*
X151174799Y-108924734D01*
X151150591Y-108905042D01*
X151150704Y-108857210D01*
X151150950Y-108855043D01*
X151159411Y-108781516D01*
X151473569Y-108773984D01*
X151787726Y-108766451D01*
X151787726Y-108607727D01*
X151016746Y-108607727D01*
X151007351Y-108801569D01*
X151002099Y-108928190D01*
X151004732Y-109010791D01*
G36*
X151787726Y-109383095D02*
X151787726Y-109222674D01*
X151012358Y-109222674D01*
X151012358Y-109383095D01*
X151787726Y-109383095D01*
X151787726Y-109383095D01*
G37*
X151787726Y-109383095D02*
X151787726Y-109222674D01*
X151012358Y-109222674D01*
X151012358Y-109383095D01*
X151787726Y-109383095D01*
G36*
X151012062Y-109997490D02*
X151027129Y-110018986D01*
X151051301Y-110033892D01*
X151093477Y-110043403D01*
X151162559Y-110048714D01*
X151267448Y-110051020D01*
X151414351Y-110051516D01*
X151787726Y-110051516D01*
X151787726Y-109864358D01*
X151146042Y-109864358D01*
X151146042Y-109703937D01*
X151787726Y-109703937D01*
X151787726Y-109516779D01*
X151014907Y-109516779D01*
X151015497Y-109703474D01*
X151013566Y-109800520D01*
X151007935Y-109876939D01*
X150999812Y-109916489D01*
X150999618Y-109916816D01*
X150997876Y-109959007D01*
X151012062Y-109997490D01*
X151012062Y-109997490D01*
G37*
X151012062Y-109997490D02*
X151027129Y-110018986D01*
X151051301Y-110033892D01*
X151093477Y-110043403D01*
X151162559Y-110048714D01*
X151267448Y-110051020D01*
X151414351Y-110051516D01*
X151787726Y-110051516D01*
X151787726Y-109864358D01*
X151146042Y-109864358D01*
X151146042Y-109703937D01*
X151787726Y-109703937D01*
X151787726Y-109516779D01*
X151014907Y-109516779D01*
X151015497Y-109703474D01*
X151013566Y-109800520D01*
X151007935Y-109876939D01*
X150999812Y-109916489D01*
X150999618Y-109916816D01*
X150997876Y-109959007D01*
X151012062Y-109997490D01*
G36*
X151627305Y-111361622D02*
X151627305Y-111522043D01*
X151628356Y-111610841D01*
X151635708Y-111658770D01*
X151655664Y-111678433D01*
X151694526Y-111682434D01*
X151707516Y-111682464D01*
X151787726Y-111682464D01*
X151787726Y-111201200D01*
X150557832Y-111201200D01*
X150557832Y-111361622D01*
X151627305Y-111361622D01*
X151627305Y-111361622D01*
G37*
X151627305Y-111361622D02*
X151627305Y-111522043D01*
X151628356Y-111610841D01*
X151635708Y-111658770D01*
X151655664Y-111678433D01*
X151694526Y-111682434D01*
X151707516Y-111682464D01*
X151787726Y-111682464D01*
X151787726Y-111201200D01*
X150557832Y-111201200D01*
X150557832Y-111361622D01*
X151627305Y-111361622D01*
G36*
X151404832Y-112291449D02*
X151783938Y-112298856D01*
X151785312Y-112045248D01*
X151786687Y-111791639D01*
X151691957Y-111773868D01*
X151614274Y-111766456D01*
X151547095Y-111767053D01*
X151547095Y-111949832D01*
X151615670Y-111952999D01*
X151646155Y-111970164D01*
X151653873Y-112012819D01*
X151654042Y-112030043D01*
X151649819Y-112081474D01*
X151626933Y-112104338D01*
X151570060Y-112110127D01*
X151547095Y-112110253D01*
X151478519Y-112107086D01*
X151448035Y-112089921D01*
X151440316Y-112047266D01*
X151440147Y-112030043D01*
X151444371Y-111978611D01*
X151467257Y-111955747D01*
X151524130Y-111949959D01*
X151547095Y-111949832D01*
X151547095Y-111767053D01*
X151521412Y-111767282D01*
X151431980Y-111774978D01*
X151364585Y-111788177D01*
X151340761Y-111799675D01*
X151329558Y-111833565D01*
X151318273Y-111903242D01*
X151312034Y-111963231D01*
X151303331Y-112047309D01*
X151289940Y-112091107D01*
X151263928Y-112107721D01*
X151222942Y-112110253D01*
X151168390Y-112103229D01*
X151148302Y-112070882D01*
X151146042Y-112030043D01*
X151154445Y-111971331D01*
X151185712Y-111950660D01*
X151199516Y-111949832D01*
X151238369Y-111937515D01*
X151252316Y-111891388D01*
X151252990Y-111868084D01*
X151249788Y-111817126D01*
X151230273Y-111794962D01*
X151179578Y-111791973D01*
X151139358Y-111794558D01*
X151025726Y-111802779D01*
X151025726Y-112284043D01*
X151404832Y-112291449D01*
X151404832Y-112291449D01*
G37*
X151404832Y-112291449D02*
X151783938Y-112298856D01*
X151785312Y-112045248D01*
X151786687Y-111791639D01*
X151691957Y-111773868D01*
X151614274Y-111766456D01*
X151547095Y-111767053D01*
X151547095Y-111949832D01*
X151615670Y-111952999D01*
X151646155Y-111970164D01*
X151653873Y-112012819D01*
X151654042Y-112030043D01*
X151649819Y-112081474D01*
X151626933Y-112104338D01*
X151570060Y-112110127D01*
X151547095Y-112110253D01*
X151478519Y-112107086D01*
X151448035Y-112089921D01*
X151440316Y-112047266D01*
X151440147Y-112030043D01*
X151444371Y-111978611D01*
X151467257Y-111955747D01*
X151524130Y-111949959D01*
X151547095Y-111949832D01*
X151547095Y-111767053D01*
X151521412Y-111767282D01*
X151431980Y-111774978D01*
X151364585Y-111788177D01*
X151340761Y-111799675D01*
X151329558Y-111833565D01*
X151318273Y-111903242D01*
X151312034Y-111963231D01*
X151303331Y-112047309D01*
X151289940Y-112091107D01*
X151263928Y-112107721D01*
X151222942Y-112110253D01*
X151168390Y-112103229D01*
X151148302Y-112070882D01*
X151146042Y-112030043D01*
X151154445Y-111971331D01*
X151185712Y-111950660D01*
X151199516Y-111949832D01*
X151238369Y-111937515D01*
X151252316Y-111891388D01*
X151252990Y-111868084D01*
X151249788Y-111817126D01*
X151230273Y-111794962D01*
X151179578Y-111791973D01*
X151139358Y-111794558D01*
X151025726Y-111802779D01*
X151025726Y-112284043D01*
X151404832Y-112291449D01*
G36*
X151019839Y-112591516D02*
X151004660Y-112738589D01*
X150998552Y-112827048D01*
X151006556Y-112889021D01*
X151036190Y-112929193D01*
X151094975Y-112952252D01*
X151190428Y-112962882D01*
X151330068Y-112965770D01*
X151369266Y-112965832D01*
X151527107Y-112964230D01*
X151639278Y-112955592D01*
X151713568Y-112934165D01*
X151757764Y-112894199D01*
X151779655Y-112829944D01*
X151787029Y-112735648D01*
X151787726Y-112656842D01*
X151787726Y-112431095D01*
X151498678Y-112431095D01*
X151498678Y-112594024D01*
X151581780Y-112598466D01*
X151628897Y-112613269D01*
X151648682Y-112641374D01*
X151649785Y-112685724D01*
X151649149Y-112691627D01*
X151640674Y-112765306D01*
X151391587Y-112773017D01*
X151142501Y-112780728D01*
X151150956Y-112692806D01*
X151159411Y-112604885D01*
X151370942Y-112596998D01*
X151498678Y-112594024D01*
X151498678Y-112431095D01*
X150557832Y-112431095D01*
X150557832Y-112591516D01*
X151019839Y-112591516D01*
X151019839Y-112591516D01*
G37*
X151019839Y-112591516D02*
X151004660Y-112738589D01*
X150998552Y-112827048D01*
X151006556Y-112889021D01*
X151036190Y-112929193D01*
X151094975Y-112952252D01*
X151190428Y-112962882D01*
X151330068Y-112965770D01*
X151369266Y-112965832D01*
X151527107Y-112964230D01*
X151639278Y-112955592D01*
X151713568Y-112934165D01*
X151757764Y-112894199D01*
X151779655Y-112829944D01*
X151787029Y-112735648D01*
X151787726Y-112656842D01*
X151787726Y-112431095D01*
X151498678Y-112431095D01*
X151498678Y-112594024D01*
X151581780Y-112598466D01*
X151628897Y-112613269D01*
X151648682Y-112641374D01*
X151649785Y-112685724D01*
X151649149Y-112691627D01*
X151640674Y-112765306D01*
X151391587Y-112773017D01*
X151142501Y-112780728D01*
X151150956Y-112692806D01*
X151159411Y-112604885D01*
X151370942Y-112596998D01*
X151498678Y-112594024D01*
X151498678Y-112431095D01*
X150557832Y-112431095D01*
X150557832Y-112591516D01*
X151019839Y-112591516D01*
G36*
X151018051Y-113336841D02*
X151025726Y-113567411D01*
X151139358Y-113575632D01*
X151210513Y-113578477D01*
X151243285Y-113566809D01*
X151252537Y-113531009D01*
X151252990Y-113502106D01*
X151244933Y-113442710D01*
X151214760Y-113421389D01*
X151199516Y-113420358D01*
X151160375Y-113407753D01*
X151146594Y-113360853D01*
X151146042Y-113340148D01*
X151157509Y-113274732D01*
X151189371Y-113255458D01*
X151237820Y-113280786D01*
X151299048Y-113349176D01*
X151347301Y-113421565D01*
X151445485Y-113583192D01*
X151609921Y-113575302D01*
X151774358Y-113567411D01*
X151782063Y-113334867D01*
X151789767Y-113102322D01*
X151695369Y-113084613D01*
X151600047Y-113076005D01*
X151544574Y-113096849D01*
X151521872Y-113150957D01*
X151520358Y-113178888D01*
X151527377Y-113236598D01*
X151557332Y-113257887D01*
X151587200Y-113259937D01*
X151634970Y-113268570D01*
X151652446Y-113305267D01*
X151654042Y-113340148D01*
X151646375Y-113397975D01*
X151615723Y-113418880D01*
X151593884Y-113420331D01*
X151547088Y-113404662D01*
X151498975Y-113352154D01*
X151459129Y-113287486D01*
X151395420Y-113181890D01*
X151342372Y-113116852D01*
X151290072Y-113083574D01*
X151228609Y-113073255D01*
X151217659Y-113073144D01*
X151122539Y-113075942D01*
X151062350Y-113089912D01*
X151029636Y-113124903D01*
X151016942Y-113190761D01*
X151016815Y-113297335D01*
X151018051Y-113336841D01*
X151018051Y-113336841D01*
G37*
X151018051Y-113336841D02*
X151025726Y-113567411D01*
X151139358Y-113575632D01*
X151210513Y-113578477D01*
X151243285Y-113566809D01*
X151252537Y-113531009D01*
X151252990Y-113502106D01*
X151244933Y-113442710D01*
X151214760Y-113421389D01*
X151199516Y-113420358D01*
X151160375Y-113407753D01*
X151146594Y-113360853D01*
X151146042Y-113340148D01*
X151157509Y-113274732D01*
X151189371Y-113255458D01*
X151237820Y-113280786D01*
X151299048Y-113349176D01*
X151347301Y-113421565D01*
X151445485Y-113583192D01*
X151609921Y-113575302D01*
X151774358Y-113567411D01*
X151782063Y-113334867D01*
X151789767Y-113102322D01*
X151695369Y-113084613D01*
X151600047Y-113076005D01*
X151544574Y-113096849D01*
X151521872Y-113150957D01*
X151520358Y-113178888D01*
X151527377Y-113236598D01*
X151557332Y-113257887D01*
X151587200Y-113259937D01*
X151634970Y-113268570D01*
X151652446Y-113305267D01*
X151654042Y-113340148D01*
X151646375Y-113397975D01*
X151615723Y-113418880D01*
X151593884Y-113420331D01*
X151547088Y-113404662D01*
X151498975Y-113352154D01*
X151459129Y-113287486D01*
X151395420Y-113181890D01*
X151342372Y-113116852D01*
X151290072Y-113083574D01*
X151228609Y-113073255D01*
X151217659Y-113073144D01*
X151122539Y-113075942D01*
X151062350Y-113089912D01*
X151029636Y-113124903D01*
X151016942Y-113190761D01*
X151016815Y-113297335D01*
X151018051Y-113336841D01*
G36*
X150383982Y-101472893D02*
X150424147Y-101522464D01*
X150451243Y-101544604D01*
X150486929Y-101559679D01*
X150541148Y-101569013D01*
X150623844Y-101573933D01*
X150744960Y-101575765D01*
X150825200Y-101575937D01*
X151172779Y-101575937D01*
X151172779Y-101976990D01*
X151173348Y-102133289D01*
X151175767Y-102245200D01*
X151181105Y-102321803D01*
X151190430Y-102372179D01*
X151204809Y-102405409D01*
X151225312Y-102430571D01*
X151226253Y-102431516D01*
X151277118Y-102474667D01*
X151319264Y-102478977D01*
X151376557Y-102446276D01*
X151380725Y-102443369D01*
X151440147Y-102401747D01*
X151439334Y-101447421D01*
X151438329Y-101176559D01*
X151435859Y-100943609D01*
X151432009Y-100751552D01*
X151426863Y-100603372D01*
X151420504Y-100502051D01*
X151413015Y-100450571D01*
X151411269Y-100446306D01*
X151362447Y-100408433D01*
X151293721Y-100400141D01*
X151229354Y-100420863D01*
X151200457Y-100451232D01*
X151190408Y-100496241D01*
X151182071Y-100584459D01*
X151176069Y-100705633D01*
X151173029Y-100849508D01*
X151172779Y-100905759D01*
X151172779Y-101308569D01*
X150815976Y-101308569D01*
X150668366Y-101309393D01*
X150564793Y-101312632D01*
X150495836Y-101319433D01*
X150452074Y-101330946D01*
X150424083Y-101348318D01*
X150414923Y-101357464D01*
X150375948Y-101418061D01*
X150383982Y-101472893D01*
X150383982Y-101472893D01*
G37*
X150383982Y-101472893D02*
X150424147Y-101522464D01*
X150451243Y-101544604D01*
X150486929Y-101559679D01*
X150541148Y-101569013D01*
X150623844Y-101573933D01*
X150744960Y-101575765D01*
X150825200Y-101575937D01*
X151172779Y-101575937D01*
X151172779Y-101976990D01*
X151173348Y-102133289D01*
X151175767Y-102245200D01*
X151181105Y-102321803D01*
X151190430Y-102372179D01*
X151204809Y-102405409D01*
X151225312Y-102430571D01*
X151226253Y-102431516D01*
X151277118Y-102474667D01*
X151319264Y-102478977D01*
X151376557Y-102446276D01*
X151380725Y-102443369D01*
X151440147Y-102401747D01*
X151439334Y-101447421D01*
X151438329Y-101176559D01*
X151435859Y-100943609D01*
X151432009Y-100751552D01*
X151426863Y-100603372D01*
X151420504Y-100502051D01*
X151413015Y-100450571D01*
X151411269Y-100446306D01*
X151362447Y-100408433D01*
X151293721Y-100400141D01*
X151229354Y-100420863D01*
X151200457Y-100451232D01*
X151190408Y-100496241D01*
X151182071Y-100584459D01*
X151176069Y-100705633D01*
X151173029Y-100849508D01*
X151172779Y-100905759D01*
X151172779Y-101308569D01*
X150815976Y-101308569D01*
X150668366Y-101309393D01*
X150564793Y-101312632D01*
X150495836Y-101319433D01*
X150452074Y-101330946D01*
X150424083Y-101348318D01*
X150414923Y-101357464D01*
X150375948Y-101418061D01*
X150383982Y-101472893D01*
G36*
X150696733Y-106469196D02*
X150723193Y-106491300D01*
X150785095Y-106495516D01*
X150847967Y-106491045D01*
X150873754Y-106468365D01*
X150878674Y-106415306D01*
X150873457Y-106361415D01*
X150846997Y-106339312D01*
X150785095Y-106335095D01*
X150722223Y-106339567D01*
X150696435Y-106362247D01*
X150691516Y-106415306D01*
X150696733Y-106469196D01*
X150696733Y-106469196D01*
G37*
X150696733Y-106469196D02*
X150723193Y-106491300D01*
X150785095Y-106495516D01*
X150847967Y-106491045D01*
X150873754Y-106468365D01*
X150878674Y-106415306D01*
X150873457Y-106361415D01*
X150846997Y-106339312D01*
X150785095Y-106335095D01*
X150722223Y-106339567D01*
X150696435Y-106362247D01*
X150691516Y-106415306D01*
X150696733Y-106469196D01*
G36*
X150714940Y-109378038D02*
X150771651Y-109383067D01*
X150783401Y-109383095D01*
X150846858Y-109379193D01*
X150873179Y-109356631D01*
X150878646Y-109299126D01*
X150878674Y-109287822D01*
X150875133Y-109224785D01*
X150854664Y-109200409D01*
X150802498Y-109199925D01*
X150791779Y-109200927D01*
X150730527Y-109213890D01*
X150704144Y-109248748D01*
X150696506Y-109296200D01*
X150694815Y-109354006D01*
X150714940Y-109378038D01*
X150714940Y-109378038D01*
G37*
X150714940Y-109378038D02*
X150771651Y-109383067D01*
X150783401Y-109383095D01*
X150846858Y-109379193D01*
X150873179Y-109356631D01*
X150878646Y-109299126D01*
X150878674Y-109287822D01*
X150875133Y-109224785D01*
X150854664Y-109200409D01*
X150802498Y-109199925D01*
X150791779Y-109200927D01*
X150730527Y-109213890D01*
X150704144Y-109248748D01*
X150696506Y-109296200D01*
X150694815Y-109354006D01*
X150714940Y-109378038D01*
G36*
X149588895Y-101637549D02*
X149605514Y-101791739D01*
X149632267Y-101910148D01*
X149681430Y-102046538D01*
X149748699Y-102196444D01*
X149824511Y-102340820D01*
X149899306Y-102460620D01*
X149927575Y-102498358D01*
X149992396Y-102578569D01*
X150205238Y-102372087D01*
X150100403Y-102209888D01*
X149980224Y-101977117D01*
X149905808Y-101727306D01*
X149876917Y-101468810D01*
X149893315Y-101209982D01*
X149954762Y-100959177D01*
X150061021Y-100724749D01*
X150146401Y-100595142D01*
X150186764Y-100539136D01*
X150208844Y-100504214D01*
X150210253Y-100500305D01*
X150192754Y-100477928D01*
X150147552Y-100430257D01*
X150102212Y-100385080D01*
X150037693Y-100329361D01*
X149991233Y-100303447D01*
X149975050Y-100306128D01*
X149816035Y-100551151D01*
X149701072Y-100785246D01*
X149659106Y-100899342D01*
X149623715Y-101014377D01*
X149601101Y-101111803D01*
X149588605Y-101210605D01*
X149583568Y-101329767D01*
X149583080Y-101442253D01*
X149588895Y-101637549D01*
X149588895Y-101637549D01*
G37*
X149588895Y-101637549D02*
X149605514Y-101791739D01*
X149632267Y-101910148D01*
X149681430Y-102046538D01*
X149748699Y-102196444D01*
X149824511Y-102340820D01*
X149899306Y-102460620D01*
X149927575Y-102498358D01*
X149992396Y-102578569D01*
X150205238Y-102372087D01*
X150100403Y-102209888D01*
X149980224Y-101977117D01*
X149905808Y-101727306D01*
X149876917Y-101468810D01*
X149893315Y-101209982D01*
X149954762Y-100959177D01*
X150061021Y-100724749D01*
X150146401Y-100595142D01*
X150186764Y-100539136D01*
X150208844Y-100504214D01*
X150210253Y-100500305D01*
X150192754Y-100477928D01*
X150147552Y-100430257D01*
X150102212Y-100385080D01*
X150037693Y-100329361D01*
X149991233Y-100303447D01*
X149975050Y-100306128D01*
X149816035Y-100551151D01*
X149701072Y-100785246D01*
X149659106Y-100899342D01*
X149623715Y-101014377D01*
X149601101Y-101111803D01*
X149588605Y-101210605D01*
X149583568Y-101329767D01*
X149583080Y-101442253D01*
X149588895Y-101637549D01*
M02*
